<svg width="32" height="32" viewBox="0 0 32 32" fill="none" xmlns="http://www.w3.org/2000/svg">
<path d="M14 20L18 16M18 20L14 16" stroke="white" stroke-width="1.5" stroke-linecap="round"/>
<path d="M29.3332 15.7305C29.3332 12.2207 29.3332 10.4658 28.3072 9.32507C28.2128 9.22014 28.113 9.12028 28.0081 9.02591C26.8674 7.99996 25.1125 7.99996 21.6026 7.99996H21.1044C19.5662 7.99996 18.797 7.99996 18.0803 7.79566C17.6866 7.68343 17.3071 7.52624 16.9493 7.32719C16.2981 6.96485 15.7542 6.421 14.6665 5.33329L13.9328 4.59962C13.5683 4.23506 13.386 4.05278 13.1944 3.89398C12.3685 3.20934 11.3554 2.78967 10.2873 2.68979C10.0395 2.66663 9.78174 2.66663 9.26617 2.66663C8.08946 2.66663 7.5011 2.66663 7.01102 2.75909C4.85358 3.16615 3.16602 4.8537 2.75897 7.01114C2.6665 7.50123 2.6665 8.08958 2.6665 9.26629M29.3216 21.3333C29.2738 24.6394 29.0285 26.5137 27.7711 27.7712C26.209 29.3333 23.6948 29.3333 18.6665 29.3333H13.3332C8.30486 29.3333 5.7907 29.3333 4.2286 27.7712C2.6665 26.2091 2.6665 23.6949 2.6665 18.6666V14.6666" stroke="white" stroke-width="1.5" stroke-linecap="round"/>
</svg>
