<svg width="32" height="32" viewBox="0 0 32 32" fill="none" xmlns="http://www.w3.org/2000/svg">
<path d="M16 22.6666V14.6666" stroke="white" stroke-width="1.5" stroke-linecap="round"/>
<circle cx="1.33333" cy="1.33333" r="0.833333" transform="matrix(1 0 0 -1 14.6665 12)" fill="white" stroke="white"/>
<path d="M29.3332 16C29.3332 22.2854 29.3332 25.4281 27.3805 27.3807C25.4279 29.3333 22.2852 29.3333 15.9998 29.3333C9.71444 29.3333 6.57175 29.3333 4.61913 27.3807C2.6665 25.4281 2.6665 22.2854 2.6665 16C2.6665 9.71457 2.6665 6.57187 4.61913 4.61925C6.57175 2.66663 9.71444 2.66663 15.9998 2.66663C22.2852 2.66663 25.4279 2.66663 27.3805 4.61925C28.6789 5.91757 29.1139 7.74203 29.2597 10.6666" stroke="white" stroke-width="1.5" stroke-linecap="round"/>
</svg>
