<svg width="32" height="33" viewBox="0 0 32 33" fill="none" xmlns="http://www.w3.org/2000/svg">
<path d="M16 11.6666V17" stroke="white" stroke-width="1.5" stroke-linecap="round"/>
<path d="M16.8332 21C16.8332 21.4602 16.4601 21.8333 15.9998 21.8333C15.5396 21.8333 15.1665 21.4602 15.1665 21C15.1665 20.5397 15.5396 20.1666 15.9998 20.1666C16.4601 20.1666 16.8332 20.5397 16.8332 21Z" fill="white" stroke="white"/>
<path d="M4 14.8888C4 10.6254 4 8.49366 4.50335 7.7765C5.00671 7.05934 7.0111 6.37324 11.0199 5.00102L11.7836 4.73958C13.8733 4.02428 14.9181 3.66663 16 3.66663C17.0819 3.66663 18.1267 4.02428 20.2164 4.73958L20.9801 5.00102C24.9889 6.37324 26.9933 7.05934 27.4966 7.7765C28 8.49366 28 10.6254 28 14.8888C28 15.5328 28 16.2312 28 16.9884C28 20.3284 26.8843 22.9045 25.3333 24.8722M4.25712 19.6666C5.40034 25.3978 10.1019 28.3505 13.1981 29.703C14.16 30.1232 14.641 30.3333 16 30.3333C17.359 30.3333 17.84 30.1232 18.8019 29.703C19.5728 29.3663 20.4431 28.9303 21.3333 28.377" stroke="white" stroke-width="1.5" stroke-linecap="round"/>
</svg>
